<svg width="1440" height="2549" viewBox="0 0 1440 2549" fill="none" xmlns="http://www.w3.org/2000/svg">
<path d="M-106.972 1245.99C-108.505 1231.55 -110.63 1217.15 -111.487 1202.68C-113.259 1174.43 -102.556 1149.85 -87.5256 1126.83C-82.0911 1118.46 -76.573 1110.1 -70.7352 1101.94C-61.7299 1089.25 -60.5159 1076.14 -65.8917 1061.37C-78.4742 1026.71 -62.9456 999.861 -37.7676 981.162C-13.3991 963.067 11.5874 945.614 34.2692 925.606C44.1963 916.869 51.185 903.166 56.1513 890.467C77.8473 835.031 110.928 787.14 153.967 746.756C185.373 717.319 210.362 684.214 230.15 646.033C240.954 625.17 255.73 606.079 270.684 587.845C287.231 567.73 299.585 545.485 311.724 522.801C322.464 502.69 336.427 485.212 352.261 468.485C369.031 450.661 382.545 429.61 396.258 409.166C416.154 379.493 434.375 348.75 459.969 323.271C474.062 309.171 489.922 298 508.08 289.467C533.517 277.523 557.591 262.853 570.276 236.766C578.457 219.968 583.099 201.266 588.116 183.101C593.73 162.885 603.131 145.603 616.91 129.288C637.068 105.36 653.926 78.707 672.827 53.745C690.113 30.9159 707.955 8.47137 726.117 -13.7773C735.054 -24.7037 748.862 -26.7111 761.389 -31.4375C792.627 -43.3024 823.257 -56.9028 854.557 -68.5101C873.17 -75.4888 891.948 -79.508 913.024 -76.0081C954.752 -68.9608 992.919 -81.1541 1023.61 -110.065C1035.79 -121.553 1041.87 -139.373 1051.77 -153.583C1083.36 -198.825 1126.46 -218.503 1181.46 -210.143C1197.74 -207.646 1206.69 -196.271 1212.7 -182.037C1213.95 -178.984 1215.27 -175.756 1215.84 -172.51C1218.96 -155.074 1227.06 -141.669 1241.3 -130.091C1252.08 -121.336 1259.52 -108.156 1267.33 -96.2069C1273.28 -87.1108 1280.12 -81.4725 1291.45 -81.0849C1307.56 -80.5374 1320.95 -72.8194 1332.88 -62.8707C1347.65 -50.5744 1364.39 -44.671 1383.33 -43.7116C1399.59 -42.8991 1415.8 -41.5854 1432.14 -40.7657C1438.1 -40.505 1439.8 -37.7499 1438.66 -32.3782C1437.68 -27.8345 1437.02 -23.1785 1435.64 -18.8379C1431.66 -6.81119 1429.54 4.1138 1438.63 15.7533C1442.42 20.6239 1441.46 29.7977 1441.27 36.9337C1440.9 49.9455 1442.44 51.6766 1455.05 53.7736C1465.42 55.5092 1475.99 57.9345 1485.65 61.9657C1489.8 63.6694 1494.04 70.094 1494.25 74.5715C1494.43 78.29 1489.47 84.0894 1485.45 85.8463C1470.15 92.4377 1454.28 97.802 1438.71 103.696C1418.96 111.166 1404.72 124.076 1393.45 142.542C1383.16 159.411 1369.25 174.285 1355.32 188.483C1342.22 201.827 1335.48 217.487 1333.27 235.305C1327.6 280.593 1329.77 325.716 1339.56 370.318C1342.36 382.761 1347.09 395.203 1353.1 406.492C1364.03 427.125 1362.32 465.519 1347.54 483.767C1344.34 487.698 1339.59 490.992 1334.96 492.949C1329.73 495.106 1327.27 498.176 1328.16 503.47C1331.32 521.498 1323.22 536.451 1311.65 547.656C1289.07 569.356 1278.44 596.966 1266.8 624.657C1250.91 662.502 1235.4 700.799 1207.16 731.687C1200.93 738.472 1194.12 745.289 1186.3 750.001C1165.26 762.745 1155.6 783.96 1144.69 804.057C1136.1 819.81 1129.27 836.556 1121.47 852.797C1115.11 866.05 1114.54 879.465 1117.78 893.712C1120.93 907.953 1123.21 922.455 1124.83 936.9C1125.3 941.148 1123.78 947.076 1120.92 949.943C1106.58 964.022 1102.63 982.531 1099.38 1000.68C1092.94 1036.39 1080.22 1069.71 1066.16 1102.92C1055.67 1127.93 1044.61 1153.74 1040.64 1180.24C1034.86 1218.96 1021.02 1254.62 1008.86 1291.1C1000.46 1316.38 991.313 1341.43 990.742 1368.56C990.632 1372.76 989.317 1377.27 987.398 1380.98C972.54 1409.82 961.027 1439.88 954.495 1471.71C948.409 1501.31 931.483 1524.85 911.471 1546.1C886.369 1572.71 876.763 1603.1 881.785 1639.55C884.494 1658.89 877.952 1677.17 865.165 1692.73C848.429 1713.08 830.588 1732.58 815.437 1754.08C805.18 1768.6 796.937 1785.14 790.782 1801.86C779.477 1832.44 758.718 1854.55 733.053 1873.04C720.584 1881.97 707.733 1890.46 695.721 1899.94C692.287 1902.68 689.103 1908.38 689.335 1912.52C691.437 1939.88 678.952 1961.69 663.782 1982.43C651.569 1999.14 635.873 2011.33 616.906 2020.47C582.221 2037.17 549.224 2057.72 531.512 2093.3C521.728 2113.07 509.603 2130.71 497.685 2148.87C470.233 2191.02 452.544 2238.05 434.71 2284.81C423.161 2315.29 412.997 2346.3 401.942 2376.91C390.663 2408.16 387.876 2440.49 388.242 2473.34C388.522 2502.31 387.959 2531.29 389.758 2560.23C391.122 2582.48 385.492 2600.93 369.591 2616.47C362.427 2623.43 355.804 2630.93 348.709 2638.06C341.606 2645.28 338.75 2653.02 341.304 2663.43C344.146 2675.37 345.441 2687.68 346.834 2699.84C347.357 2704.51 346.18 2709.37 345.583 2716.3C338.058 2707.91 332.655 2700.3 325.652 2694.64C311.263 2682.88 296.61 2671.27 281.068 2661.18C270.231 2654.1 265.595 2656.14 257.085 2666.01C254.087 2669.54 251.075 2673.24 247.613 2676.3C238.782 2684.04 232.101 2682.46 229.982 2670.91C226.813 2653.98 224.257 2636.76 223.463 2619.61C222.218 2592.07 226.48 2565.09 234.814 2538.71C239.115 2524.94 239.725 2511.03 234.982 2496.73C217.238 2442.86 199.836 2388.94 182.865 2334.88C170.25 2294.75 144.509 2266.27 110.56 2242.23C73.0381 2215.68 37.3559 2186.35 2.29443 2156.65C-21.6311 2136.41 -38.4237 2110.56 -50.6173 2081.15C-83.1444 2002.53 -101.763 1920.73 -112.36 1836.68C-115.451 1812.01 -120.243 1787.53 -124.351 1762.94C-129.426 1732.96 -146.278 1710.73 -169.966 1692.61C-185.051 1681.13 -199.843 1669.17 -213.622 1656.2C-226.074 1644.44 -228.139 1628.36 -227.381 1611.76C-226.97 1604.05 -222.934 1600.19 -215.917 1598.86C-208.734 1597.55 -201.434 1596.83 -194.313 1595.25C-188.049 1593.86 -183.678 1590.03 -185.936 1583.02C-198.237 1545.1 -187.622 1509.83 -172.31 1475.72C-159.191 1446.56 -144.368 1418.13 -129.149 1389.99C-117.543 1368.61 -114.439 1347.25 -119.175 1323.11C-122.978 1303.77 -122.405 1283.45 -122.377 1263.6C-122.418 1248.45 -120.947 1247.98 -106.972 1245.99Z" fill="#BBEEC6"/>
</svg>
