<svg width="130" height="30" viewBox="0 0 130 30" fill="none" xmlns="http://www.w3.org/2000/svg">
<path d="M0.849479 13.4331C0.270795 13.4331 0 12.9462 0 12.4937C0 12.0753 0.237409 11.6227 0.745613 11.6227C2.51134 11.5543 4.37723 11.482 6.28021 11.3793C7.90869 8.38616 9.91183 3.61689 10.8281 0.623732C10.9653 0.174949 11.3363 0 11.7109 0C12.2525 0 12.8646 0.384128 12.8646 0.973631C12.8646 1.66962 10.2865 7.48098 8.24996 11.2386C12.8646 10.9267 17.6202 10.4399 21.6933 9.81237C20.5396 8.69802 19.3155 7.72439 18.0282 6.85345C17.7908 6.6785 17.6536 6.46932 17.6536 6.26014C17.6536 5.80756 18.095 5.3892 18.6366 5.3892C19.8237 5.3892 26.6492 11.444 26.6492 13.2885C26.6492 13.9161 26.1076 14.4029 25.5957 14.4029C25.2915 14.4029 25.017 14.2279 24.8167 13.8818C24.2751 12.9082 23.6296 11.9688 22.9508 11.1663C15.3759 12.7371 2.47796 13.4331 0.849479 13.4331ZM19.5862 29.0264C17.2789 29.1291 15.0718 29.2013 12.898 29.2013C10.8948 29.2013 8.96219 29.1329 7.05921 29.0264C5.05607 28.8857 3.9358 27.5659 3.86903 25.8583C3.83564 24.9189 3.80225 24.0137 3.80225 23.1085C3.80225 22.2376 3.83564 21.3324 3.86903 20.4995C3.9358 18.9326 4.9893 17.4037 6.99244 17.3314C9.02896 17.2629 11.1694 17.2287 13.3394 17.2287C15.5095 17.2287 17.7167 17.2629 19.7532 17.3314C21.5189 17.3998 22.6058 18.7234 22.7059 20.2181C22.7727 21.089 22.7727 22.0284 22.7727 22.9678C22.7727 23.9072 22.7727 24.8466 22.7059 25.786C22.6429 27.4594 21.4855 28.9199 19.5862 29.0264ZM20.9773 22.7624C20.9773 20.0127 20.8772 19.0048 18.8035 18.8983C16.971 18.8299 15.1052 18.7956 13.2356 18.7956C11.4031 18.7956 9.57055 18.8299 7.73805 18.8983C6.3136 18.9326 5.66814 19.9062 5.63476 20.9521C5.60137 21.5454 5.60137 22.3441 5.60137 23.1466C5.60137 26.3489 5.63475 27.2541 7.77515 27.3567C9.67442 27.4594 11.4068 27.4975 13.2059 27.4975C15.005 27.4975 16.8709 27.4632 18.9074 27.3567C20.1649 27.2883 20.9105 26.6265 20.9439 25.3372C20.9773 24.6412 20.9773 23.7018 20.9773 22.7624Z" fill="#E56F47"/>
<path d="M36.2494 13.2581C35.0623 12.353 33.738 11.7254 32.6178 11.3793C32.2765 11.2767 32.1429 10.9952 32.1429 10.7518C32.1429 10.2992 32.4842 9.84663 33.0592 9.84663C33.7714 9.84663 36.012 10.786 37.2361 11.6227C37.5774 11.8662 37.7109 12.178 37.7109 12.4595C37.7109 12.9805 37.3029 13.4673 36.8281 13.4673C36.624 13.4673 36.4534 13.3989 36.2494 13.2581ZM33.2298 29.1975C32.7216 29.1975 32.2802 28.745 32.2802 28.2239C32.2802 28.049 32.347 27.8398 32.5176 27.6306C34.3167 25.4361 36.012 22.2376 36.9987 19.138C37.136 18.7538 37.4735 18.5447 37.7777 18.5447C38.2191 18.5447 38.6606 18.8565 38.6606 19.4498C38.6606 20.18 36.6574 25.2612 34.1461 28.6385C33.8753 29.0264 33.534 29.1975 33.2298 29.1975ZM36.5573 5.7087C35.4036 4.24826 34.4169 3.55226 33.5006 2.95896C33.2632 2.81824 33.1594 2.60906 33.1594 2.43791C33.1594 2.01955 33.6342 1.6012 34.109 1.6012C34.9251 1.6012 38.2154 4.07331 38.2154 5.08117C38.2154 5.63644 37.7406 6.08903 37.2658 6.08903C37.0321 6.08903 36.7613 5.95211 36.5573 5.7087ZM39.306 15.3461C38.9647 15.3461 38.6606 15.1369 38.6606 14.7908C38.6606 14.6882 38.6939 14.5817 38.7607 14.441C39.3728 13.4673 39.9812 11.7254 40.085 10.5426C40.1184 10.2308 40.3892 10.09 40.6637 10.09C41.005 10.09 41.3759 10.2992 41.3759 10.6833C41.3759 11.482 40.5598 14.0606 39.9181 15.0343C39.7808 15.2434 39.5434 15.3461 39.306 15.3461ZM42.3256 8.94526C41.1051 9.08598 39.2022 9.25713 39.1688 9.25713C38.8646 9.25713 38.6939 8.94526 38.6939 8.66382C38.6939 8.14278 38.7607 8.10855 40.5932 8.00206C41.0013 7.54947 41.4093 7.06266 41.8137 6.54161C41.068 5.67067 39.8105 4.45363 39.2689 4.03527C39.1317 3.93259 39.0649 3.79187 39.0649 3.65115C39.0649 3.37351 39.3357 3.09587 39.677 3.09587C39.9478 3.09587 40.2557 3.33928 40.6266 3.65115C41.2387 2.64329 41.847 1.28553 42.1215 0.380355C42.1883 0.136947 42.3923 0.0304565 42.6297 0.0304565C43.0044 0.0304565 43.4125 0.308093 43.4125 0.657992C43.4125 1.07635 42.3256 3.16433 41.4761 4.44983C41.8507 4.83396 42.1883 5.21428 42.4962 5.56418C43.2418 4.44983 43.9207 3.30125 44.2953 2.46834C44.3955 2.25916 44.5995 2.15647 44.8035 2.15647C45.1782 2.15647 45.5862 2.43411 45.5862 2.78401C45.5862 2.95896 44.2953 5.25612 42.1252 7.89937L44.9779 7.62173C44.7738 7.30987 44.5698 6.9942 44.3658 6.75079C44.2656 6.6481 44.2285 6.50738 44.2285 6.40089C44.2285 6.15748 44.4993 5.94831 44.8072 5.94831C45.4193 5.94831 46.9105 8.42041 46.9105 9.08218C46.9105 9.50054 46.5693 9.74395 46.2651 9.74395C46.0277 9.74395 45.8236 9.64126 45.7569 9.32559C45.6901 9.04795 45.5862 8.80454 45.4861 8.56114L43.5868 8.77031L43.6202 15.7987C43.6202 16.2171 43.2789 16.4262 42.9413 16.4262C42.5667 16.4262 42.2291 16.2171 42.2291 15.7987L42.3256 8.94526ZM41.6467 18.5827C41.2387 18.5827 41.0013 18.2708 41.0013 17.9209C41.0013 17.571 41.2387 17.2249 41.7135 17.2249C46.9402 17.2249 52.3375 17.2249 56.6146 17.2592C59.4339 17.2592 59.6008 18.267 59.6008 19.5905C59.6008 20.6707 59.6008 21.9219 56.5812 21.9219H44.0913C43.2084 21.9219 42.767 21.9904 42.5964 22.3745C42.4257 22.7244 42.2551 23.5231 42.2551 23.5573C42.2551 23.9072 42.6965 23.9757 43.3754 23.9757H57.631C59.7009 23.9757 60.1758 24.9151 60.1758 25.786C60.1758 26.9004 59.4301 27.9082 59.1223 28.2581C58.0688 29.4752 55.32 30 52.063 30C50.2639 30 48.2608 29.8593 46.3615 29.5474C45.9201 29.479 45.7161 29.1633 45.7161 28.8172C45.7161 28.4331 45.9869 28.0528 46.4617 28.0528H46.6323C48.4648 28.4027 50.468 28.5738 52.2671 28.5738C54.6078 28.5738 56.5775 28.2619 57.3936 27.566C57.5976 27.391 58.4137 26.5923 58.4137 25.7898C58.4137 25.3372 57.9723 25.2346 57.1228 25.2346C52.4377 25.2346 47.1442 25.2688 42.7967 25.2688C40.9976 25.2688 40.4894 24.7135 40.4894 24.0518C40.4894 24.0175 40.66 22.8005 40.9976 21.9638C41.3017 21.1271 41.9138 20.6745 43.5757 20.6745H56.2029C57.5939 20.6745 57.798 20.3626 57.798 19.6666C57.798 18.7272 57.4233 18.5865 56.2029 18.5865H41.6467V18.5827ZM45.7903 14.5817C45.4861 14.5817 45.2116 14.4067 45.2116 14.0264C45.1782 13.1212 44.6329 11.3451 44.3287 10.6872C44.2953 10.5845 44.2619 10.5122 44.2619 10.4437C44.2619 10.1661 44.5327 9.99116 44.8035 9.99116C45.7532 9.99116 46.5025 13.3304 46.5025 13.8895C46.5025 14.3383 46.1278 14.5817 45.7903 14.5817ZM47.1479 4.59435C46.7065 4.59435 46.5025 4.31671 46.5025 4.00104C46.5025 3.68538 46.7399 3.37351 47.1479 3.37351H53.5283C53.9697 3.37351 54.1738 3.68538 54.1738 3.96682C54.1738 4.27868 53.9697 4.59435 53.5283 4.59435H47.1479ZM50.3381 15.5211C47.8935 15.5211 47.2481 15.4184 47.2481 12.9805C47.2481 10.961 47.4855 10.4742 50.1341 10.4742C53.2241 10.4742 53.4615 10.6833 53.4615 12.9463C53.4615 15.1407 53.187 15.5211 50.3381 15.5211ZM48.0642 2.05378C47.6228 2.05378 47.4187 1.74192 47.4187 1.46048C47.4187 1.14861 47.6228 0.832941 48.0642 0.832941H52.7159C53.124 0.832941 53.328 1.14481 53.328 1.42625C53.328 1.73811 53.124 2.05378 52.7159 2.05378H48.0642ZM48.1977 6.95997C47.7897 6.95997 47.5857 6.68233 47.5857 6.4047C47.5857 6.12706 47.7897 5.84942 48.1977 5.84942H52.5082C52.9162 5.84942 53.1203 6.12706 53.1203 6.4047C53.1203 6.68233 52.9162 6.95997 52.5082 6.95997H48.1977ZM48.1977 9.32559C47.7897 9.32559 47.5857 9.04795 47.5857 8.77031C47.5857 8.45845 47.7897 8.17701 48.1977 8.17701H52.5082C52.9162 8.17701 53.1203 8.45464 53.1203 8.73228C53.1203 9.04415 52.9162 9.32559 52.5082 9.32559H48.1977ZM52.1372 12.3568C52.1372 11.6266 51.5956 11.5201 50.3715 11.5201C48.5724 11.5201 48.539 11.7977 48.539 13.0147C48.539 14.4067 48.7096 14.441 50.3381 14.441C51.3582 14.441 52.1372 14.3725 52.1372 13.6423V12.3568ZM57.6681 8.94526C57.0561 9.01372 54.7153 9.25713 54.4779 9.25713C54.1738 9.25713 54.0031 8.94526 54.0031 8.66382C54.0031 8.38619 54.1404 8.10855 54.4112 8.10855L55.9395 8.00586C56.3475 7.5875 56.7556 7.06646 57.1599 6.54541C56.4143 5.64024 55.1234 4.45743 54.5818 4.03908C54.4446 3.93639 54.3778 3.79567 54.3778 3.65495C54.3778 3.37731 54.6486 3.09968 54.9899 3.09968C55.1271 3.09968 55.2273 3.09968 55.9729 3.65495C56.5849 2.64709 57.1933 1.28933 57.4678 0.384158C57.5346 0.140751 57.7386 0.0342598 57.976 0.0342598C58.3507 0.0342598 58.7921 0.311897 58.7921 0.661795C58.7921 1.28933 57.401 3.58649 56.8224 4.45363L57.8759 5.56798C58.6549 4.45363 59.3003 3.30505 59.675 2.47214C59.7788 2.26296 59.9792 2.16027 60.1832 2.16027C60.5578 2.16027 60.9622 2.43791 60.9622 2.78781C60.9622 3.27462 59.0629 6.02437 57.5012 7.86895C58.5213 7.76626 59.6045 7.69399 60.4206 7.62554C60.2166 7.31367 59.9458 7.03223 59.7417 6.78882C59.6416 6.68614 59.6045 6.57965 59.6045 6.47696C59.6045 6.16509 59.9087 5.95591 60.2499 5.95591C60.7915 5.95591 62.4237 8.39379 62.4237 9.05175C62.4237 9.47011 62.0824 9.74775 61.7783 9.74775C61.5409 9.74775 61.3702 9.60703 61.2701 9.32939C61.2033 9.05175 61.0994 8.77412 60.9659 8.53071L58.9294 8.77412L58.9627 15.8025C58.9627 16.2209 58.6215 16.43 58.2839 16.43C57.9092 16.43 57.5717 16.2209 57.5717 15.8025L57.6681 8.94526ZM54.7487 15.4868C54.4446 15.4868 54.1367 15.2777 54.1367 14.9658C54.1367 14.8631 54.1367 14.7566 54.2034 14.6539C54.7116 13.6803 55.1865 11.9384 55.1865 10.7556V10.6491C55.1865 10.2992 55.4906 10.1281 55.7985 10.1281C56.1398 10.1281 56.4774 10.3373 56.4774 10.7214C56.4774 11.7673 55.9358 14.1329 55.4239 15.1065C55.294 15.3842 55.0232 15.4868 54.7487 15.4868ZM61.0623 14.1975C60.9251 13.2581 60.1795 11.4136 59.7714 10.7518C59.7046 10.6491 59.6676 10.5426 59.6676 10.4742C59.6676 10.1965 59.9717 10.0216 60.2796 10.0216C61.2997 10.0216 62.3495 13.7107 62.3495 13.9541C62.3495 14.4067 61.9749 14.7186 61.6039 14.7186C61.3702 14.7224 61.1328 14.5474 61.0623 14.1975Z" fill="#E56F47"/>
<path d="M69.546 20.7772C69.3754 21.264 68.9673 21.5074 68.563 21.5074C68.1216 21.5074 67.7469 21.2297 67.7469 20.7429C67.7469 20.6022 67.7469 20.4653 67.8137 20.3246C69.0341 16.8446 69.9503 12.912 70.5958 9.08218L67.4724 9.15063H67.439C66.9308 9.15063 66.6934 8.76651 66.6934 8.38618C66.6934 7.96783 66.9642 7.54947 67.439 7.54947L70.8332 7.51524C71.1745 5.21808 71.4453 2.98938 71.5788 0.939429C71.6122 0.384155 72.0203 0.140747 72.4283 0.140747C72.9031 0.140747 73.3779 0.452613 73.3779 0.977461C73.3779 1.08015 73.1071 3.93639 72.5618 7.51904C73.4781 7.51904 74.3943 7.48481 75.2104 7.48481C77.0429 7.48481 78.0297 8.59916 78.0297 10.2003C78.0297 13.125 77.3174 17.0234 75.8225 20.4311C76.2639 20.6402 79.4875 22.2756 79.4875 23.5269C79.4875 24.0822 79.0795 24.5728 78.6046 24.5728C78.3672 24.5728 78.1632 24.5043 77.9258 24.2609C77.0763 23.39 76.1267 22.6255 75.0732 21.998C72.2911 27.2541 68.2143 29.3421 67.5355 29.3421C66.9568 29.3421 66.5858 28.821 66.5858 28.3342C66.5858 28.0566 66.7231 27.7789 67.0272 27.6382C70.1507 26.2462 72.2206 23.8806 73.6116 21.2678C72.4246 20.7467 71.1337 20.3284 69.7426 20.1192L69.546 20.7772ZM76.2677 10.4742C76.2677 9.60322 75.8262 9.01372 74.8098 9.01372C74.131 9.01372 73.2815 9.01372 72.3319 9.04795C71.7903 12.2845 71.0409 15.5895 70.1581 18.6549C71.5491 18.8299 72.9736 19.2483 74.3313 19.7693C75.8967 16.1486 76.2677 12.4252 76.2677 10.4742ZM89.9817 16.1144C90.0819 16.9853 90.1524 17.8563 90.1524 18.7957C90.1524 20.5376 89.9483 22.3441 89.5737 24.2229C89.0321 27.0069 87.1959 29.3383 83.7015 29.3383C82.852 29.3383 81.9024 29.1975 80.8489 28.8857C80.3407 28.745 80.1033 28.3304 80.1033 27.912C80.1033 27.4252 80.4075 26.9726 80.9194 26.9726C80.9862 26.9726 81.09 26.9726 81.1902 27.0069C82.1732 27.3568 83.0561 27.4937 83.8054 27.4937C86.1832 27.4937 87.4036 25.9268 87.845 23.7703C88.2197 21.9942 88.3866 20.2219 88.3866 18.5485C88.3866 17.7117 88.3532 16.8788 88.2494 16.1106L79.4912 16.1448C78.9496 16.1448 78.6751 15.7264 78.6751 15.3081C78.6751 14.8897 78.9459 14.4714 79.4541 14.4714L87.9749 14.5056C87.4333 12.2084 86.3464 10.3296 84.5807 9.35601C84.3433 9.21529 84.2394 9.04414 84.2394 8.83497C84.2394 8.45084 84.6474 7.99825 85.1556 7.99825C85.6972 7.99825 86.3427 8.5193 86.684 8.79693C86.9548 8.58775 90.6235 5.35119 90.6235 4.44602C90.6235 3.92498 89.8779 3.92498 88.6871 3.92498C86.8212 3.92498 83.5606 3.95921 80.912 4.02766H80.8786C80.3704 4.02766 80.0996 3.64354 80.0996 3.22898C80.0996 2.81443 80.3704 2.39227 80.9157 2.39227C82.6814 2.32381 84.3766 2.32381 85.9717 2.32381C87.5668 2.32381 89.0618 2.32381 90.3861 2.35804C91.9478 2.39227 92.66 3.19475 92.66 4.16838C92.66 4.72366 92.66 5.87224 87.7709 9.94551C88.6871 11.1283 89.3659 12.6953 89.7406 14.5056L95.2752 14.4714C95.8168 14.4714 96.0542 14.8897 96.0542 15.2701C96.0542 15.6884 95.8168 16.1068 95.2752 16.1068H89.9817V16.1144Z" fill="#E56F47"/>
<path d="M103.488 20.7772C103.317 21.264 102.909 21.5074 102.505 21.5074C102.064 21.5074 101.689 21.2297 101.689 20.7429C101.689 20.6022 101.689 20.4653 101.756 20.3246C102.976 16.8446 103.892 12.912 104.538 9.08218L101.414 9.15063H101.381C100.873 9.15063 100.635 8.76651 100.635 8.38618C100.635 7.96783 100.906 7.54947 101.381 7.54947L104.775 7.51524C105.117 5.21808 105.387 2.98938 105.521 0.939429C105.554 0.384155 105.962 0.140747 106.37 0.140747C106.845 0.140747 107.32 0.452613 107.32 0.977461C107.32 1.08015 107.049 3.93639 106.504 7.51904C107.42 7.51904 108.336 7.48481 109.153 7.48481C110.985 7.48481 111.972 8.59916 111.972 10.2003C111.972 13.125 111.26 17.0234 109.765 20.4311C110.206 20.6402 113.43 22.2756 113.43 23.5269C113.43 24.0822 113.022 24.5728 112.547 24.5728C112.309 24.5728 112.105 24.5043 111.868 24.2609C111.018 23.39 110.069 22.6255 109.015 21.998C106.233 27.2541 102.156 29.3421 101.478 29.3421C100.899 29.3421 100.528 28.821 100.528 28.3342C100.528 28.0566 100.665 27.7789 100.969 27.6382C104.093 26.2462 106.163 23.8806 107.554 21.2678C106.367 20.7467 105.076 20.3284 103.685 20.1192L103.488 20.7772ZM110.21 10.4742C110.21 9.60322 109.768 9.01372 108.752 9.01372C108.073 9.01372 107.224 9.01372 106.274 9.04795C105.732 12.2845 104.983 15.5895 104.1 18.6549C105.491 18.8299 106.916 19.2483 108.273 19.7693C109.839 16.1486 110.21 12.4252 110.21 10.4742ZM123.924 16.1144C124.024 16.9853 124.094 17.8563 124.094 18.7957C124.094 20.5376 123.89 22.3441 123.516 24.2229C122.974 27.0069 121.138 29.3383 117.644 29.3383C116.794 29.3383 115.844 29.1975 114.791 28.8857C114.283 28.745 114.045 28.3304 114.045 27.912C114.045 27.4252 114.35 26.9726 114.861 26.9726C114.928 26.9726 115.032 26.9726 115.132 27.0069C116.115 27.3568 116.998 27.4937 117.747 27.4937C120.125 27.4937 121.346 25.9268 121.787 23.7703C122.162 21.9942 122.329 20.2219 122.329 18.5485C122.329 17.7117 122.295 16.8788 122.191 16.1106L113.433 16.1448C112.892 16.1448 112.617 15.7264 112.617 15.3081C112.617 14.8897 112.888 14.4714 113.396 14.4714L121.917 14.5056C121.375 12.2084 120.288 10.3296 118.523 9.35601C118.285 9.21529 118.181 9.04414 118.181 8.83497C118.181 8.45084 118.59 7.99825 119.098 7.99825C119.639 7.99825 120.285 8.5193 120.626 8.79693C120.897 8.58775 124.566 5.35119 124.566 4.44602C124.566 3.92498 123.82 3.92498 122.629 3.92498C120.763 3.92498 117.503 3.95921 114.854 4.02766H114.821C114.312 4.02766 114.042 3.64354 114.042 3.22898C114.042 2.81443 114.312 2.39227 114.858 2.39227C116.623 2.32381 118.319 2.32381 119.914 2.32381C121.509 2.32381 123.004 2.32381 124.328 2.35804C125.89 2.39227 126.602 3.19475 126.602 4.16838C126.602 4.72366 126.602 5.87224 121.713 9.94551C122.629 11.1283 123.308 12.6953 123.683 14.5056L129.217 14.4714C129.759 14.4714 129.996 14.8897 129.996 15.2701C129.996 15.6884 129.759 16.1068 129.217 16.1068H123.924V16.1144Z" fill="#E56F47"/>
</svg>
